<svg xmlns="http://www.w3.org/2000/svg" style="display: none;">
  <!-- Navigation Icons -->
  <symbol id="icon-home" viewBox="0 0 24 24" fill="none" stroke="currentColor" stroke-width="2">
    <path d="M3 9l9-7 9 7v11a2 2 0 0 1-2 2H5a2 2 0 0 1-2-2z"/>
    <polyline points="9,22 9,12 15,12 15,22"/>
  </symbol>
  
  <symbol id="icon-products" viewBox="0 0 24 24" fill="none" stroke="currentColor" stroke-width="2">
    <rect x="2" y="3" width="20" height="14" rx="2" ry="2"/>
    <line x1="8" y1="21" x2="16" y2="21"/>
    <line x1="12" y1="17" x2="12" y2="21"/>
  </symbol>
  
  <symbol id="icon-services" viewBox="0 0 24 24" fill="none" stroke="currentColor" stroke-width="2">
    <circle cx="12" cy="12" r="3"/>
    <path d="M19.4 15a1.65 1.65 0 0 0 .33 1.82l.06.06a2 2 0 0 1 0 2.83 2 2 0 0 1-2.83 0l-.06-.06a1.65 1.65 0 0 0-1.82-.33 1.65 1.65 0 0 0-1 1.51V21a2 2 0 0 1-2 2 2 2 0 0 1-2-2v-.09A1.65 1.65 0 0 0 9 19.4a1.65 1.65 0 0 0-1.82.33l-.06.06a2 2 0 0 1-2.83 0 2 2 0 0 1 0-2.83l.06-.06a1.65 1.65 0 0 0 .33-1.82 1.65 1.65 0 0 0-1.51-1H3a2 2 0 0 1-2-2 2 2 0 0 1 2-2h.09A1.65 1.65 0 0 0 4.6 9a1.65 1.65 0 0 0-.33-1.82l-.06-.06a2 2 0 0 1 0-2.83 2 2 0 0 1 2.83 0l.06.06a1.65 1.65 0 0 0 1.82.33H9a1.65 1.65 0 0 0 1-1.51V3a2 2 0 0 1 2-2 2 2 0 0 1 2 2v.09a1.65 1.65 0 0 0 1 1.51 1.65 1.65 0 0 0 1.82-.33l.06-.06a2 2 0 0 1 2.83 0 2 2 0 0 1 0 2.83l-.06.06a1.65 1.65 0 0 0-.33 1.82V9a1.65 1.65 0 0 0 1.51 1H21a2 2 0 0 1 2 2 2 2 0 0 1-2 2h-.09a1.65 1.65 0 0 0-1.51 1z"/>
  </symbol>
  
  <symbol id="icon-contact" viewBox="0 0 24 24" fill="none" stroke="currentColor" stroke-width="2">
    <path d="M4 4h16c1.1 0 2 .9 2 2v12c0 1.1-.9 2-2 2H4c-1.1 0-2-.9-2-2V6c0-1.1.9-2 2-2z"/>
    <polyline points="22,6 12,13 2,6"/>
  </symbol>
  
  <!-- Feature Icons -->
  <symbol id="icon-check-circle" viewBox="0 0 24 24" fill="none" stroke="currentColor" stroke-width="2">
    <path d="M9 12l2 2 4-4"/>
    <path d="21 12c-1 0-3-1-3-3s2-3 3-3 3 1 3 3-2 3-3 3"/>
    <path d="3 12c1 0 3-1 3-3s-2-3-3-3-3 1-3 3 2 3 3 3"/>
  </symbol>
  
  <symbol id="icon-star" viewBox="0 0 24 24" fill="none" stroke="currentColor" stroke-width="2">
    <circle cx="12" cy="12" r="3"/>
    <path d="M12 1v6M12 17v6M4.22 4.22l4.24 4.24M15.54 15.54l4.24 4.24M1 12h6M17 12h6M4.22 19.78l4.24-4.24M15.54 8.46l4.24-4.24"/>
  </symbol>
  
  <symbol id="icon-zap" viewBox="0 0 24 24" fill="none" stroke="currentColor" stroke-width="2">
    <path d="M22 12h-4l-3 9L9 3l-3 9H2"/>
  </symbol>
  
  <!-- Business Icons -->
  <symbol id="icon-briefcase" viewBox="0 0 24 24" fill="none" stroke="currentColor" stroke-width="2">
    <rect x="2" y="7" width="20" height="14" rx="2" ry="2"/>
    <path d="M16 21V5a2 2 0 0 0-2-2h-4a2 2 0 0 0-2 2v16"/>
  </symbol>
  
  <symbol id="icon-chart" viewBox="0 0 24 24" fill="none" stroke="currentColor" stroke-width="2">
    <path d="M3 3v18h18"/>
    <path d="M18.7 8l-5.1 5.2-2.8-2.7L7 14.3"/>
  </symbol>
  
  <symbol id="icon-shield" viewBox="0 0 24 24" fill="none" stroke="currentColor" stroke-width="2">
    <path d="M12 22s8-4 8-10V5l-8-3-8 3v7c0 6 8 10 8 10z"/>
  </symbol>
  
  <symbol id="icon-users" viewBox="0 0 24 24" fill="none" stroke="currentColor" stroke-width="2">
    <path d="M17 21v-2a4 4 0 0 0-4-4H5a4 4 0 0 0-4 4v2"/>
    <circle cx="9" cy="7" r="4"/>
    <path d="M23 21v-2a4 4 0 0 0-3-3.87"/>
    <path d="M16 3.13a4 4 0 0 1 0 7.75"/>
  </symbol>
  
  <!-- Technology Icons -->
  <symbol id="icon-monitor" viewBox="0 0 24 24" fill="none" stroke="currentColor" stroke-width="2">
    <rect x="2" y="3" width="20" height="14" rx="2" ry="2"/>
    <line x1="8" y1="21" x2="16" y2="21"/>
    <line x1="12" y1="17" x2="12" y2="21"/>
  </symbol>
  
  <symbol id="icon-smartphone" viewBox="0 0 24 24" fill="none" stroke="currentColor" stroke-width="2">
    <rect x="5" y="2" width="14" height="20" rx="2" ry="2"/>
    <line x1="12" y1="18" x2="12.01" y2="18"/>
  </symbol>
  
  <symbol id="icon-cloud" viewBox="0 0 24 24" fill="none" stroke="currentColor" stroke-width="2">
    <path d="M18 10h-1.26A8 8 0 1 0 9 20h9a5 5 0 0 0 0-10z"/>
  </symbol>
  
  <symbol id="icon-database" viewBox="0 0 24 24" fill="none" stroke="currentColor" stroke-width="2">
    <ellipse cx="12" cy="5" rx="9" ry="3"/>
    <path d="M21 12c0 1.66-4 3-9 3s-9-1.34-9-3"/>
    <path d="M3 5v14c0 1.66 4 3 9 3s9-1.34 9-3V5"/>
  </symbol>
  
  <!-- Communication Icons -->
  <symbol id="icon-phone" viewBox="0 0 24 24" fill="none" stroke="currentColor" stroke-width="2">
    <path d="M22 16.92v3a2 2 0 0 1-2.18 2 19.79 19.79 0 0 1-8.63-3.07 19.5 19.5 0 0 1-6-6 19.79 19.79 0 0 1-3.07-8.67A2 2 0 0 1 4.11 2h3a2 2 0 0 1 2 1.72 12.84 12.84 0 0 0 .7 2.81 2 2 0 0 1-.45 2.11L8.09 9.91a16 16 0 0 0 6 6l1.27-1.27a2 2 0 0 1 2.11-.45 12.84 12.84 0 0 0 2.81.7A2 2 0 0 1 22 16.92z"/>
  </symbol>
  
  <symbol id="icon-mail" viewBox="0 0 24 24" fill="none" stroke="currentColor" stroke-width="2">
    <path d="M4 4h16c1.1 0 2 .9 2 2v12c0 1.1-.9 2-2 2H4c-1.1 0-2-.9-2-2V6c0-1.1.9-2 2-2z"/>
    <polyline points="22,6 12,13 2,6"/>
  </symbol>
  
  <symbol id="icon-map-pin" viewBox="0 0 24 24" fill="none" stroke="currentColor" stroke-width="2">
    <path d="M21 10c0 7-9 13-9 13s-9-6-9-13a9 9 0 0 1 18 0z"/>
    <circle cx="12" cy="10" r="3"/>
  </symbol>
  
  <symbol id="icon-clock" viewBox="0 0 24 24" fill="none" stroke="currentColor" stroke-width="2">
    <circle cx="12" cy="12" r="10"/>
    <polyline points="12,6 12,12 16,14"/>
  </symbol>
  
  <!-- Action Icons -->
  <symbol id="icon-arrow-right" viewBox="0 0 24 24" fill="none" stroke="currentColor" stroke-width="2">
    <line x1="5" y1="12" x2="19" y2="12"/>
    <polyline points="12,5 19,12 12,19"/>
  </symbol>
  
  <symbol id="icon-external-link" viewBox="0 0 24 24" fill="none" stroke="currentColor" stroke-width="2">
    <path d="M18 13v6a2 2 0 0 1-2 2H5a2 2 0 0 1-2-2V8a2 2 0 0 1 2-2h6"/>
    <polyline points="15,3 21,3 21,9"/>
    <line x1="10" y1="14" x2="21" y2="3"/>
  </symbol>
  
  <symbol id="icon-download" viewBox="0 0 24 24" fill="none" stroke="currentColor" stroke-width="2">
    <path d="M21 15v4a2 2 0 0 1-2 2H5a2 2 0 0 1-2-2v-4"/>
    <polyline points="7,10 12,15 17,10"/>
    <line x1="12" y1="15" x2="12" y2="3"/>
  </symbol>
  
  <symbol id="icon-chevron-down" viewBox="0 0 24 24" fill="none" stroke="currentColor" stroke-width="2">
    <polyline points="6,9 12,15 18,9"/>
  </symbol>
  
  <symbol id="icon-chevron-up" viewBox="0 0 24 24" fill="none" stroke="currentColor" stroke-width="2">
    <polyline points="18,15 12,9 6,15"/>
  </symbol>
  
  <symbol id="icon-menu" viewBox="0 0 24 24" fill="none" stroke="currentColor" stroke-width="2">
    <line x1="3" y1="6" x2="21" y2="6"/>
    <line x1="3" y1="12" x2="21" y2="12"/>
    <line x1="3" y1="18" x2="21" y2="18"/>
  </symbol>
  
  <symbol id="icon-x" viewBox="0 0 24 24" fill="none" stroke="currentColor" stroke-width="2">
    <line x1="18" y1="6" x2="6" y2="18"/>
    <line x1="6" y1="6" x2="18" y2="18"/>
  </symbol>
  
  <!-- Social Media Icons -->
  <symbol id="icon-facebook" viewBox="0 0 24 24" fill="none" stroke="currentColor" stroke-width="2">
    <path d="M18 2h-3a5 5 0 0 0-5 5v3H7v4h3v8h4v-8h3l1-4h-4V7a1 1 0 0 1 1-1h3z"/>
  </symbol>
  
  <symbol id="icon-twitter" viewBox="0 0 24 24" fill="none" stroke="currentColor" stroke-width="2">
    <path d="M23 3a10.9 10.9 0 0 1-3.14 1.53 4.48 4.48 0 0 0-7.86 3v1A10.66 10.66 0 0 1 3 4s-4 9 5 13a11.64 11.64 0 0 1-7 2c9 5 20 0 20-11.5a4.5 4.5 0 0 0-.08-.83A7.72 7.72 0 0 0 23 3z"/>
  </symbol>
  
  <symbol id="icon-linkedin" viewBox="0 0 24 24" fill="none" stroke="currentColor" stroke-width="2">
    <path d="M16 8a6 6 0 0 1 6 6v7h-4v-7a2 2 0 0 0-2-2 2 2 0 0 0-2 2v7h-4v-7a6 6 0 0 1 6-6z"/>
    <rect x="2" y="9" width="4" height="12"/>
    <circle cx="4" cy="4" r="2"/>
  </symbol>
  
  <symbol id="icon-instagram" viewBox="0 0 24 24" fill="none" stroke="currentColor" stroke-width="2">
    <rect x="2" y="2" width="20" height="20" rx="5" ry="5"/>
    <path d="M16 11.37A4 4 0 1 1 12.63 8 4 4 0 0 1 16 11.37z"/>
    <line x1="17.5" y1="6.5" x2="17.51" y2="6.5"/>
  </symbol>
  
  <!-- Status Icons -->
  <symbol id="icon-check" viewBox="0 0 24 24" fill="none" stroke="currentColor" stroke-width="2">
    <polyline points="20,6 9,17 4,12"/>
  </symbol>
  
  <symbol id="icon-alert-circle" viewBox="0 0 24 24" fill="none" stroke="currentColor" stroke-width="2">
    <circle cx="12" cy="12" r="10"/>
    <line x1="12" y1="8" x2="12" y2="12"/>
    <line x1="12" y1="16" x2="12.01" y2="16"/>
  </symbol>
  
  <symbol id="icon-info" viewBox="0 0 24 24" fill="none" stroke="currentColor" stroke-width="2">
    <circle cx="12" cy="12" r="10"/>
    <line x1="12" y1="16" x2="12" y2="12"/>
    <line x1="12" y1="8" x2="12.01" y2="8"/>
  </symbol>
  
  <symbol id="icon-alert-triangle" viewBox="0 0 24 24" fill="none" stroke="currentColor" stroke-width="2">
    <path d="M10.29 3.86L1.82 18a2 2 0 0 0 1.71 3h16.94a2 2 0 0 0 1.71-3L13.71 3.86a2 2 0 0 0-3.42 0z"/>
    <line x1="12" y1="9" x2="12" y2="13"/>
    <line x1="12" y1="17" x2="12.01" y2="17"/>
  </symbol>
  
  <!-- File and Document Icons -->
  <symbol id="icon-file" viewBox="0 0 24 24" fill="none" stroke="currentColor" stroke-width="2">
    <path d="M14.5 2H6a2 2 0 0 0-2 2v16a2 2 0 0 0 2 2h12a2 2 0 0 0 2-2V7.5L14.5 2z"/>
    <polyline points="14,2 14,8 20,8"/>
  </symbol>
  
  <symbol id="icon-folder" viewBox="0 0 24 24" fill="none" stroke="currentColor" stroke-width="2">
    <path d="M22 19a2 2 0 0 1-2 2H4a2 2 0 0 1-2-2V5a2 2 0 0 1 2-2h5l2 3h9a2 2 0 0 1 2 2z"/>
  </symbol>
  
  <symbol id="icon-search" viewBox="0 0 24 24" fill="none" stroke="currentColor" stroke-width="2">
    <circle cx="11" cy="11" r="8"/>
    <path d="M21 21l-4.35-4.35"/>
  </symbol>
  
  <!-- Logo Icon -->
  <symbol id="icon-logo" viewBox="0 0 24 24" fill="none" stroke="currentColor" stroke-width="2">
    <circle cx="12" cy="12" r="10"/>
    <path d="8 12l2 2 4-4"/>
  </symbol>
</svg>
